# xmcd
#
# Track frame offsets: 
#        150
#        12296
#        29353
#        44721
#        57639
#        77427
#        93239
#        98029
#        109590
#        121841
#        136213
#        153993
#        170110
#        181530
#
# Disc length: 2617 seconds
#
# Revision: 0
# Processed by: cddbd v1.5.2PL0 Copyright (c) Steve Scherf et al.
# Submitted via: ExactAudioCopy v0.99pb4
#
DISCID=aa0a370e
DTITLE=Ladies In Black And Gold Strings - Beyond the Painted Sky
DYEAR=1900
DGENRE=Bluegrass
TTITLE0=I Wonder Where You Are
TTITLE1=Beneath The Painted Sky
TTITLE2=White Oak On The Hill
TTITLE3=It's A Little More Like Heaven
TTITLE4=P-I-G
TTITLE5=Heart That Will Never Break
TTITLE6=God Bless America
TTITLE7=Life Is Like A Mountain Railway
TTITLE8=Heartbreak Mountain
TTITLE9=I Heard The Bluebird Sing
TTITLE10=West Virginia
TTITLE11=Old And In The Way
TTITLE12=Little Mt. Church House
TTITLE13=Roll On Muddy RIver
EXTD=
EXTT0=
EXTT1=
EXTT2=
EXTT3=
EXTT4=
EXTT5=
EXTT6=
EXTT7=
EXTT8=
EXTT9=
EXTT10=
EXTT11=
EXTT12=
EXTT13=
PLAYORDER=
